<?xml version="1.0" encoding="UTF-8"?>
<svg xmlns="http://www.w3.org/2000/svg" version="1.1" viewBox="0 0 512 512">
  <defs>
    <style>
      .cls-1 {
        fill: #fff;
      }

      .cls-2 {
        fill: #485f27;
      }
    </style>
  </defs>
  <!-- Generator: Adobe Illustrator 28.7.1, SVG Export Plug-In . SVG Version: 1.2.0 Build 142)  -->
  <g>
    <g id="Capa_1">
      <rect class="cls-2" width="512" height="512"/>
      <g>
        <path class="cls-1" d="M440,186.8h8.9v-46h-1.5l-146.2-84.1h.2c0-.1-23.1-13.5-23.1-13.5l-23.2-13L63.5,140.8h-.5v46h8.9v273.2h368V186.8ZM118,411.4v-224.6h0v-24.4l137.4-79.3,138.2,79.8v23.9h.3v224.6H118Z"/>
        <polygon class="cls-1" points="210 230.1 348 230.1 348 184.1 210 184.1 164 184.1 164 230.1 164 322.1 164 368.1 210 368.1 348 368.1 348 322.1 210 322.1 210 230.1"/>
      </g>
    </g>
  </g>
</svg>