<?xml version="1.0" encoding="UTF-8"?>
<svg xmlns="http://www.w3.org/2000/svg" version="1.1" viewBox="0 0 512 512">
  <defs>
    <style>
      .cls-1 {
        fill: #2d4406;
      }

      .cls-2 {
        fill: #f8f8f8;
      }

      .cls-3 {
        opacity: .8;
      }
    </style>
  </defs>
  <!-- Generator: Adobe Illustrator 28.7.1, SVG Export Plug-In . SVG Version: 1.2.0 Build 142)  -->
  <g>
    <g id="Capa_1">
 
      <g class="cls-3">
        <path class="cls-2" d="M384.9,196.3h6.3v-32.2h-1.1l-102.4-58.9h.1c0,0-16.2-9.5-16.2-9.5l-16.2-9.1-134.2,77.5h-.3v32.2h6.3v191.4h257.8v-191.4ZM159.3,353.6v-157.3h0v-17.1l96.2-55.6,96.8,55.9v16.7h.2v157.3h-193.3Z"/>
        <polygon class="cls-2" points="223.8 226.6 320.4 226.6 320.4 194.4 223.8 194.4 191.6 194.4 191.6 226.6 191.6 291 191.6 323.2 223.8 323.2 320.4 323.2 320.4 291 223.8 291 223.8 226.6"/>
      </g>
    </g>
  </g>
</svg>