<svg xmlns="http://www.w3.org/2000/svg" data-name="Capa 1" viewBox="0 0 64 64"><circle cx="32" cy="32" r="32" fill="#e2271d"/><path fill="#fff" d="M35.81 20.12a3.59 3.59 0 0 0 3.57 3.57h4.74v22.56a2.36 2.36 0 0 1-2.37 2.37h-19a2.36 2.36 0 0 1-2.37-2.37v-28.5a2.36 2.36 0 0 1 2.37-2.37h13.06ZM46.5 46.25V23.69L35.81 13H22.75A4.75 4.75 0 0 0 18 17.75v28.5A4.75 4.75 0 0 0 22.75 51h19a4.75 4.75 0 0 0 4.75-4.75Z"/><path fill="#fff" d="M32.44 31.53a17.08 17.08 0 0 0 .47-2 6.12 6.12 0 0 0 .09-1.08 1.29 1.29 0 0 0-.08-.47 1.46 1.46 0 0 0-.34.1c-.21.08-.38.25-.47.67a5.05 5.05 0 0 0 .11 1.95c.06.27.13.54.22.83Zm4.72 8.32a10.15 10.15 0 0 0 1 1 2.27 2.27 0 0 0 1.19.6.22.22 0 0 0 .16 0 .76.76 0 0 0 .23-.3 1.11 1.11 0 0 0 .14-.47.25.25 0 0 0-.06-.15 2.23 2.23 0 0 0-1.24-.5 10 10 0 0 0-1.45-.13Zm-5.81-1.07c.8-.18 1.6-.33 2.4-.46-.43-.66-.84-1.34-1.21-2-.37.84-.77 1.67-1.19 2.49Zm-3.89 3.16a10.05 10.05 0 0 0-1.09.57 4.62 4.62 0 0 0-1.54 1.3.76.76 0 0 0-.09.85.27.27 0 0 0 .06.11h.08a4.81 4.81 0 0 0 1.51-1.36c.38-.49.73-.97 1.07-1.47Zm-3.28 4.52a2 2 0 0 1-1-1 2.56 2.56 0 0 1 .19-2.62A6.32 6.32 0 0 1 25.46 41 18.94 18.94 0 0 1 29 39.44a46.58 46.58 0 0 0 2.52-5.29 18.42 18.42 0 0 1-1-3.07 6.74 6.74 0 0 1-.11-2.7 2.57 2.57 0 0 1 1.55-2 2.51 2.51 0 0 1 1.43-.18 1.61 1.61 0 0 1 .66.31 1.59 1.59 0 0 1 .47.56 2.83 2.83 0 0 1 .3 1.28 7.47 7.47 0 0 1-.11 1.45 23.53 23.53 0 0 1-1.23 4.26 25.35 25.35 0 0 0 2.32 4 13.45 13.45 0 0 1 3.17.12 3.76 3.76 0 0 1 2.28 1.1 2 2 0 0 1 .48 1.23 2.92 2.92 0 0 1-.33 1.34 2.52 2.52 0 0 1-.84 1 2 2 0 0 1-1.21.32 4 4 0 0 1-2.22-1 13.14 13.14 0 0 1-2.2-2.17 27.39 27.39 0 0 0-4.75 1 27.18 27.18 0 0 1-2.42 3.59 6.43 6.43 0 0 1-2.2 1.87 1.93 1.93 0 0 1-1.38 0Z"/></svg>